<?xml version="1.0" encoding="UTF-8"?><svg xmlns="http://www.w3.org/2000/svg" width="780" height="322" version="1.0" shape-rendering="geometricPrecision"><defs><filter id="shadowBlur" x="0" y="0" width="200%" height="200%"><feOffset in="SourceGraphic" dx="3.0003002" dy="3.0003002" result="offOut"></feOffset><feGaussianBlur in="offOut" stdDeviation="3"></feGaussianBlur></filter></defs><g stroke-width="1" stroke-linecap="square" stroke-linejoin="round"><rect x="0" y="0" width="780" height="322" style="fill: #ffffff"></rect><path stroke="#969696" fill="#969696" filter="url(#shadowBlur)" d="M235.0 245.0 L695.0 245.0 L695.0 287.0 L235.0 287.0 z"></path><path stroke="#969696" fill="#969696" filter="url(#shadowBlur)" d="M295.0 189.0 L665.0 189.0 L665.0 217.0 L295.0 217.0 z"></path><path stroke="#969696" fill="#969696" filter="url(#shadowBlur)" d="M25.0 119.0 L265.0 119.0 L265.0 161.0 L25.0 161.0 z"></path><path stroke="#969696" fill="#969696" filter="url(#shadowBlur)" d="M295.0 119.0 L505.0 119.0 L505.0 161.0 L295.0 161.0 z"></path><path stroke="#969696" fill="#969696" filter="url(#shadowBlur)" d="M545.0 119.0 L755.0 119.0 L755.0 161.0 L545.0 161.0 z"></path><path stroke="#969696" fill="#969696" filter="url(#shadowBlur)" d="M295.0 35.0 L565.0 35.0 L565.0 63.0 L295.0 63.0 z"></path><path stroke="#000000" stroke-width="1.0" stroke-linecap="round" stroke-linejoin="round" fill="white" d="M235.0 245.0 L695.0 245.0 L695.0 287.0 L235.0 287.0 z"></path><path stroke="#000000" stroke-width="1.0" stroke-linecap="round" stroke-linejoin="round" fill="white" d="M295.0 189.0 L665.0 189.0 L665.0 217.0 L295.0 217.0 z"></path><path stroke="#000000" stroke-width="1.0" stroke-linecap="round" stroke-linejoin="round" fill="white" d="M25.0 119.0 L265.0 119.0 L265.0 161.0 L25.0 161.0 z"></path><path stroke="#000000" stroke-width="1.0" stroke-linecap="round" stroke-linejoin="round" fill="white" d="M295.0 119.0 L505.0 119.0 L505.0 161.0 L295.0 161.0 z"></path><path stroke="#000000" stroke-width="1.0" stroke-linecap="round" stroke-linejoin="round" fill="white" d="M545.0 119.0 L755.0 119.0 L755.0 161.0 L545.0 161.0 z"></path><path stroke="#000000" stroke-width="1.0" stroke-linecap="round" stroke-linejoin="round" fill="white" d="M295.0 35.0 L565.0 35.0 L565.0 63.0 L295.0 63.0 z"></path><path stroke="#000000" stroke-width="1.0" stroke-linecap="round" stroke-linejoin="round" fill="none" d="M425.0 91.0 L85.0 91.0 L85.0 105.0 "></path><path stroke="#000000" stroke-width="1.0" stroke-linecap="round" stroke-linejoin="round" fill="none" d="M425.0 91.0 L645.0 91.0 L645.0 105.0 "></path><path stroke="#000000" stroke-width="1.0" stroke-linecap="round" stroke-linejoin="round" fill="none" d="M410.0 49.0 L419.0 49.0 "></path><path stroke="#000000" stroke-width="1.0" stroke-linecap="round" stroke-linejoin="round" fill="none" d="M650.0 133.0 L659.0 133.0 "></path><path stroke="#000000" stroke-width="1.0" stroke-linecap="round" stroke-linejoin="round" fill="none" d="M425.0 168.0 L425.0 181.0 "></path><path stroke="#000000" stroke-width="1.0" stroke-linecap="round" stroke-linejoin="round" fill="none" d="M425.0 224.0 L425.0 237.0 "></path><path stroke="#000000" stroke-width="1.0" stroke-linecap="round" stroke-linejoin="round" fill="none" d="M425.0 91.0 L425.0 105.0 "></path><path stroke="#000000" stroke-width="1.0" stroke-linecap="round" stroke-linejoin="round" fill="none" d="M425.0 77.0 L425.0 91.0 "></path><text x="325" y="54" font-family="sans-serif" font-size="15" stroke="none" fill="#000000"><![CDATA[Trainer in Kommunikation]]></text><text x="40" y="138" font-family="sans-serif" font-size="15" stroke="none" fill="#000000"><![CDATA[Verständnis & Nutzung]]></text><text x="40" y="152" font-family="sans-serif" font-size="15" stroke="none" fill="#000000"><![CDATA[von Trainingsmitteln]]></text><text x="310" y="138" font-family="sans-serif" font-size="15" stroke="none" fill="#000000"><![CDATA[Selbstbild &]]></text><text x="310" y="152" font-family="sans-serif" font-size="15" stroke="none" fill="#000000"><![CDATA[Selbstwirksamkeit]]></text><text x="560" y="138" font-family="sans-serif" font-size="15" stroke="none" fill="#000000"><![CDATA[Handlungs]]></text><text x="671" y="138" font-family="sans-serif" font-size="15" stroke="none" fill="#000000"><![CDATA[& ]]></text><text x="560" y="152" font-family="sans-serif" font-size="15" stroke="none" fill="#000000"><![CDATA[Emotionsregulation]]></text><text x="329" y="208" font-family="sans-serif" font-size="15" stroke="none" fill="#000000"><![CDATA[Motivation & Zielbindung]]></text><text x="250" y="264" font-family="sans-serif" font-size="15" stroke="none" fill="#000000"><![CDATA[Grundbedürfnisse nach SDT]]></text><text x="250" y="278" font-family="sans-serif" font-size="15" stroke="none" fill="#000000"><![CDATA[Autonomie, Kompetenz, Zugehörigkeit]]></text></g></svg>